<?xml version="1.0" encoding="UTF-8"?>
<svg id="Layer_1" data-name="Layer 1" xmlns="http://www.w3.org/2000/svg" viewBox="0 0 409.69 170.15">
  <defs>
    <style>
      .cls-1 {
        fill: #6bb8a4;
      }
    </style>
  </defs>
  <g>
    <g>
      <path class="cls-1" d="m167.53,12.75c.03,7.09-5.71,12.86-12.8,12.85-6.99-.01-12.73-5.72-12.76-12.7C141.94,5.81,147.66.02,154.74,0c7.04-.02,12.77,5.69,12.8,12.75Z"/>
      <path class="cls-1" d="m181.04,45.72c0-4.55-4.22-9.48-9-9.57h-54.67v-10.55h-19.08v26.94h49.19l-49.19,38.02v25.82l35.39-27.34,17.4,27.12h23.88l-25.6-39.23,25.09-19.41c4.56-3.66,6.59-6.46,6.59-11.79Z"/>
      <path class="cls-1" d="m22.76,52.53v16.41h57.23v16.35H22.76v30.86H0V36.15h81.91v16.38H22.76Z"/>
    </g>
    <path class="cls-1" d="m267.88,99.98h-44.6l-7.34,16.17h-24.61l39.97-80h28.56l39.97,80h-24.61l-7.34-16.17Zm-6.77-14.68l-15.52-35.79-15.52,35.79h31.05Z"/>
    <path class="cls-1" d="m316.21,36.15h24.39l48.43,54.34v-54.34h20.66v80h-22.69l-50.13-55.12v55.12h-20.66V36.15Z"/>
  </g>
  <g>
    <path class="cls-1" d="m210.35,148.97c0,4.25-3.18,6.95-8.17,6.95h-6.52v8.02h-4.25v-21.73h10.96c4.9,0,7.99,2.63,7.99,6.76Zm-4.44.09c0-2.3-1.65-3.7-4.41-3.7h-5.85v7.44h5.85c2.72,0,4.41-1.44,4.41-3.73Z"/>
    <path class="cls-1" d="m211.73,159.81c0-1.47.64-2.69,1.87-3.46,1.1-.7,2.63-1.13,5.51-1.41l5.48-.46v-.34c0-2.23-1.38-3.28-3.95-3.28s-4.04.98-4.29,2.79h-4.13c.37-3.34,3.58-5.48,8.42-5.48,5.42,0,7.93,2.08,7.93,6.52v4.32c0,2.27.12,3.7.4,4.93h-3.98c-.15-.8-.21-1.81-.24-2.79-1.04,2.05-3.43,3.24-6.8,3.24-3.8,0-6.21-1.74-6.21-4.59Zm12.92-2.33v-.8l-5.17.52c-2.66.28-3.64.98-3.64,2.39s1.25,2.17,3.43,2.17c3.18,0,5.39-1.68,5.39-4.29Z"/>
    <path class="cls-1" d="m231.87,156.29c0-4.81,3.24-8.11,7.96-8.11,2.72,0,4.71.92,6.03,2.82v-9.24h3.95v22.19h-3.8v-2.88c-1.22,2.11-3.43,3.34-6.43,3.34-4.53,0-7.71-3.28-7.71-8.11Zm14.08.4v-.73c0-2.97-2.05-4.87-5.08-4.87s-4.87,1.93-4.87,5.17,1.9,5.23,4.93,5.23,5.02-1.9,5.02-4.81Z"/>
    <path class="cls-1" d="m271.21,157.27h-13.68c.15,2.57,2.14,4.22,5.33,4.22,2.33,0,4.07-.95,5.02-2.66l3.09,1.41c-1.53,2.69-4.38,4.16-8.26,4.16-5.6,0-9.03-2.91-9.03-7.96s3.46-8.26,8.88-8.26,8.66,2.79,8.66,7.68v1.41Zm-3.92-2.63c-.03-2.51-1.96-3.95-4.81-3.95s-4.81,1.56-4.96,4.1h9.76v-.15Z"/>
    <path class="cls-1" d="m279.2,163.94h-3.95v-22.19h3.95v22.19Z"/>
    <path class="cls-1" d="m313.66,148.97c0,4.25-3.18,6.95-8.17,6.95h-6.52v8.02h-4.25v-21.73h10.96c4.9,0,7.99,2.63,7.99,6.76Zm-4.44.09c0-2.3-1.65-3.7-4.41-3.7h-5.85v7.44h5.85c2.72,0,4.41-1.44,4.41-3.73Z"/>
    <path class="cls-1" d="m326.18,148.24c.43,0,.73.03,1.1.09v3.64c-.4-.06-.77-.09-1.19-.09-1.78,0-2.94.46-3.77,1.29-1.22,1.22-1.5,2.97-1.5,4.81v5.97h-3.95v-15.3h3.61v4.01c.8-2.63,2.82-4.41,5.69-4.41Z"/>
    <path class="cls-1" d="m328.48,156.29c0-5.05,3.7-8.11,9.15-8.11s9.12,3.06,9.12,8.11-3.7,8.11-9.12,8.11-9.15-3.09-9.15-8.11Zm14.17,0c0-3.37-1.93-5.2-5.02-5.2s-5.05,1.84-5.05,5.2,1.93,5.2,5.05,5.2,5.02-1.87,5.02-5.2Z"/>
    <path class="cls-1" d="m346.88,169.97v-3.03c.7.06,1.32.09,1.74.09,1.38,0,2.02-.67,2.02-2.94v-15.46h3.95v15.92c0,3.28-1.25,5.6-5.45,5.6-.7,0-1.74-.06-2.27-.18Zm3.52-27.82h4.32v3.95h-4.32v-3.95Z"/>
    <path class="cls-1" d="m375.83,157.27h-13.68c.15,2.57,2.14,4.22,5.33,4.22,2.33,0,4.07-.95,5.02-2.66l3.09,1.41c-1.53,2.69-4.38,4.16-8.26,4.16-5.6,0-9.03-2.91-9.03-7.96s3.46-8.26,8.88-8.26,8.66,2.79,8.66,7.68v1.41Zm-3.92-2.63c-.03-2.51-1.96-3.95-4.81-3.95s-4.81,1.56-4.96,4.1h9.76v-.15Z"/>
    <path class="cls-1" d="m378.56,156.26c0-4.99,3.52-8.08,9.12-8.08,4.68,0,7.71,2.02,8.45,5.66l-4.04.58c-.46-2.11-2.05-3.28-4.53-3.28-3.06,0-4.9,1.9-4.9,5.08s1.9,5.17,4.96,5.17c2.45,0,4.01-1.13,4.56-3.28l3.92.67c-.77,3.49-3.95,5.6-8.48,5.6-5.51,0-9.06-3.18-9.06-8.14Z"/>
    <path class="cls-1" d="m396.98,148.63h3.55v-3.83l3.95-1.53v5.36h5.2v2.79h-5.2v6.7c0,1.96.95,2.85,2.94,2.85.89,0,1.62-.12,2.27-.28v3.15c-.86.24-1.93.43-3.24.43-4.38,0-5.91-2.17-5.91-5.54v-7.32h-3.55v-2.79Z"/>
  </g>
</svg>