<?xml version="1.0" encoding="UTF-8"?>
<svg id="Layer_1" data-name="Layer 1" xmlns="http://www.w3.org/2000/svg" viewBox="0 -30 190 190">
  <defs>
    <style>
      .cls-1 {
        fill: #6bb8a4;
      }
    </style>
  </defs>
  <g>
    <g>
      <path class="cls-1"
        d="m167.53,12.75c.03,7.09-5.71,12.86-12.8,12.85-6.99-.01-12.73-5.72-12.76-12.7C141.94,5.81,147.66.02,154.74,0c7.04-.02,12.77,5.69,12.8,12.75Z" />
      <path class="cls-1"
        d="m181.04,45.72c0-4.55-4.22-9.48-9-9.57h-54.67v-10.55h-19.08v26.94h49.19l-49.19,38.02v25.82l35.39-27.34,17.4,27.12h23.88l-25.6-39.23,25.09-19.41c4.56-3.66,6.59-6.46,6.59-11.79Z" />
      <path class="cls-1" d="m22.76,52.53v16.41h57.23v16.35H22.76v30.86H0V36.15h81.91v16.38H22.76Z" />
    </g>
  </g>
</svg>